HIERARCHY
ROOT Hips
{
	OFFSET	0.00	0.00	0.00
	CHANNELS 6 Xposition Yposition Zposition Zrotation Xrotation Yrotation
	JOINT LeftUpLeg
	{
		OFFSET	 0.126116	-0.014019	-0.065224
		CHANNELS 3 Zrotation Xrotation Yrotation
		JOINT LeftLeg
		{
			OFFSET	 0.000000	 0.000000	 0.569914
			CHANNELS 3 Zrotation Xrotation Yrotation
			JOINT LeftFoot
			{
				OFFSET	 0.000000	 0.000000	 0.544423
				CHANNELS 3 Zrotation Xrotation Yrotation
				JOINT LeftToeBase
				{
					OFFSET	 0.000000	 0.000000	 0.207117
					CHANNELS 3 Zrotation Xrotation Yrotation
					End Site
					{
						OFFSET	 0.000000	 0.000000	 0.207117
					}
				}
			}
		}
	}
	JOINT RightUpLeg
	{
		OFFSET	-0.124023	-0.008373	-0.065224
		CHANNELS 3 Zrotation Xrotation Yrotation
		JOINT RightLeg
		{
			OFFSET	 0.000000	 0.000000	 0.570047
			CHANNELS 3 Zrotation Xrotation Yrotation
			JOINT RightFoot
			{
				OFFSET	 0.000000	 0.000000	 0.544354
				CHANNELS 3 Zrotation Xrotation Yrotation
				JOINT RightToeBase
				{
					OFFSET	 0.000000	 0.000000	 0.207540
					CHANNELS 3 Zrotation Xrotation Yrotation
					End Site
					{
						OFFSET	 0.000000	 0.000000	 0.207540
					}
				}
			}
		}
	}
	JOINT Spine
	{
		OFFSET	 0.000184	-0.007763	 0.117403
		CHANNELS 3 Zrotation Xrotation Yrotation
		JOINT Spine1
		{
			OFFSET	 0.000000	 0.000000	 0.137269
			CHANNELS 3 Zrotation Xrotation Yrotation
			JOINT Spine2
			{
				OFFSET	 0.000000	 0.000000	 0.156879
				CHANNELS 3 Zrotation Xrotation Yrotation
				JOINT LeftShoulder
				{
					OFFSET	 0.080501	-0.002496	 0.160144
					CHANNELS 3 Zrotation Xrotation Yrotation
					JOINT LeftArm
					{
						OFFSET	 0.000000	 0.000000	 0.164363
						CHANNELS 3 Zrotation Xrotation Yrotation
						JOINT LeftForeArm
						{
							OFFSET	 0.000000	 0.000000	 0.364576
							CHANNELS 3 Zrotation Xrotation Yrotation
							JOINT LeftHand
							{
								OFFSET	 0.000000	 0.000000	 0.360812
								CHANNELS 3 Zrotation Xrotation Yrotation
								JOINT LeftHandIndex1
								{
									OFFSET	 0.000000	 0.000000	 0.086006
									CHANNELS 3 Zrotation Xrotation Yrotation
									JOINT LeftHandIndex2
									{
										OFFSET	 0.000000	 0.000000	 0.047236
										CHANNELS 3 Zrotation Xrotation Yrotation
										JOINT LeftHandIndex3
										{
											OFFSET	-0.004284	-0.000551	 0.038166
											CHANNELS 3 Zrotation Xrotation Yrotation
											End Site
											{
												OFFSET	-0.004284	-0.000551	 0.038166
											}
										}
									}
								}
							}
						}
					}
				}
				JOINT Neck
				{
					OFFSET	 0.000000	 0.000000	 0.176489
					CHANNELS 3 Zrotation Xrotation Yrotation
					JOINT Head
					{
						OFFSET	 0.000000	-0.001747	 0.077940
						CHANNELS 3 Zrotation Xrotation Yrotation
						End Site
						{
							OFFSET	 0.000000	-0.001747	 0.077940
						}
					}
				}
				JOINT RightShoulder
				{
					OFFSET	-0.080363	 0.000306	 0.159706
					CHANNELS 3 Zrotation Xrotation Yrotation
					JOINT RightArm
					{
						OFFSET	 0.000000	 0.000000	 0.164196
						CHANNELS 3 Zrotation Xrotation Yrotation
						JOINT RightForeArm
						{
							OFFSET	 0.000000	 0.000000	 0.365611
							CHANNELS 3 Zrotation Xrotation Yrotation
							JOINT RightHand
							{
								OFFSET	 0.000000	 0.000000	 0.360648
								CHANNELS 3 Zrotation Xrotation Yrotation
								JOINT RightHandIndex1
								{
									OFFSET	 0.000000	 0.000000	 0.069977
									CHANNELS 3 Zrotation Xrotation Yrotation
									JOINT RightHandIndex2
									{
										OFFSET	 0.000000	 0.000000	 0.052305
										CHANNELS 3 Zrotation Xrotation Yrotation
										JOINT RightHandIndex3
										{
											OFFSET	 0.009002	-0.000782	 0.042196
											CHANNELS 3 Zrotation Xrotation Yrotation
											End Site
											{
												OFFSET	 0.009002	-0.000782	 0.042196
											}
										}
									}
								}
							}
						}
					}
				}
			}
		}
	}
}
MOTION
Frames:    9
Frame Time: 0.03333334
-13.641800	-37.724620	 0.862826	-38.923410	 17.134590	 3.757513	 3.430994	-34.931070	 175.246700	-1.050442	-43.179460	-0.198168	-0.653328	 80.679300	 0.590959	-2.350486	 34.409600	-0.134757	-0.721022	-36.179620	-179.561600	-3.062794	-43.305830	-0.999569	-1.595179	 80.800550	 0.431088	 2.406805	 19.677820	-0.179487	-0.432577	 15.230980	 1.608730	-1.208918	 2.103323	-1.797925	-2.128016	-3.639027	-0.207901	-125.814800	 89.282910	-141.746200	 53.776710	 65.525830	-61.109260	-10.632410	-1.367517	-21.948910	-1.860512	-2.185103	-5.375525	-5.749539	-12.375950	-1.515993	-5.213516	-0.193813	 3.566525	-1.378229	 35.397820	-2.634230	 0.822147	 0.194368	-3.830780	-0.480919	-6.587584	 1.122867	 93.695130	 85.933560	 171.999400	-62.188150	 74.169850	 72.117330	-1.934503	-15.512600	 32.151600	-23.903830	-3.186124	 9.585673	-10.054510	-10.301120	-39.032680	 5.070815	-0.697434	-9.399699	-2.350882	 35.473990	 5.254307
-13.644990	-37.730840	 0.863510	-38.817500	 17.452940	 3.764608	 3.557464	-34.847930	 175.422400	-1.433287	-43.065190	-0.389109	-0.777502	 80.991840	 0.481268	-2.353199	 34.045790	-0.126135	-0.743384	-36.007630	-179.484800	-2.945144	-43.004220	-0.935410	-1.604628	 81.316080	 0.541875	 2.406620	 19.900510	-0.175073	-0.432578	 15.107060	 1.515459	-1.220682	 1.963001	-1.835925	-2.149958	-3.820854	-0.213433	-125.557700	 89.278820	-142.006200	 55.837980	 66.179970	-61.789120	-10.180460	-1.437468	-21.136970	-1.626357	-2.201532	-5.374584	-5.619369	-12.167490	-1.232009	-5.213516	-0.193813	 3.566525	-1.378229	 35.397820	-2.634230	 0.800436	 0.104385	-3.793845	-0.490541	-6.849700	 1.251269	 93.698360	 85.952670	 172.021900	-60.922530	 75.213150	 70.139480	-2.667557	-14.653220	 28.908830	-24.682610	-3.184781	 9.585904	-9.835402	-9.859409	-38.838720	 5.070815	-0.697434	-9.399699	-2.350882	 35.473990	 5.254307
-13.648120	-37.736840	 0.863837	-38.739370	 17.753480	 3.779987	 3.618333	-34.858740	 175.531100	-1.744793	-43.078250	-0.569391	-0.883565	 81.311920	 0.369476	-2.353823	 33.960240	-0.124115	-0.763018	-35.872800	-179.421200	-2.800487	-42.776530	-0.851120	-1.594905	 81.847940	 0.657565	 2.406245	 20.287290	-0.167402	-0.402409	 14.968220	 1.420344	-1.212762	 1.825940	-1.883695	-2.181773	-3.994134	-0.219865	-125.022100	 89.267250	-142.528800	 57.797750	 66.739360	-62.464250	-9.689953	-1.508183	-20.400300	-1.377709	-2.217818	-5.373412	-5.465107	-12.006890	-0.887356	-5.213516	-0.193813	 3.566525	-1.378229	 35.397820	-2.634230	 0.771833	 0.005179	-3.725535	-0.522410	-7.089968	 1.290923	 93.690800	 85.970120	 172.063500	-58.700190	 76.364400	 67.012390	-3.274188	-13.899930	 26.120000	-25.527100	-3.183394	 9.586073	-9.607391	-9.405056	-38.630400	 5.070815	-0.697434	-9.399699	-2.350882	 35.473990	 5.254307
-13.651410	-37.742810	 0.863951	-38.710910	 18.063730	 3.797882	 3.596295	-34.962430	 175.569700	-1.948117	-43.189330	-0.724023	-0.973343	 81.648120	 0.274816	-2.352086	 34.196370	-0.129699	-0.770689	-35.733840	-179.408000	-2.634951	-42.585810	-0.745016	-1.563700	 82.373340	 0.776014	 2.405684	 20.782200	-0.157537	-0.341699	 14.798210	 1.348657	-1.187974	 1.675507	-1.927630	-2.224244	-4.176387	-0.227657	-124.018800	 89.243330	-143.504000	 59.753240	 67.248420	-63.158600	-9.118464	-1.592343	-19.682490	-1.072981	-2.234989	-5.371570	-5.241724	-11.798880	-0.383526	-5.213516	-0.193813	 3.566525	-1.378229	 35.397820	-2.634230	 0.739302	-0.116699	-3.631207	-0.579329	-7.331315	 1.222947	 93.669990	 85.987800	 172.132500	-55.413730	 77.542420	 62.675750	-3.819534	-13.231330	 23.689160	-26.431090	-3.192255	 9.571383	-9.367755	-8.921605	-38.412300	 5.070815	-0.697434	-9.399699	-2.350882	 35.473990	 5.254307
-13.654270	-37.747880	 0.863987	-38.751250	 18.296020	 3.818860	 3.571028	-34.968240	 175.605000	-2.036762	-43.335150	-0.805868	-1.025319	 81.923110	 0.229202	-2.349152	 34.585320	-0.138938	-0.755652	-35.588550	-179.438300	-2.496299	-42.442120	-0.643403	-1.519484	 82.744470	 0.867603	 2.405236	 21.135110	-0.150477	-0.264138	 14.669410	 1.313277	-1.141199	 1.530055	-1.944361	-2.246147	-4.347156	-0.233221	-122.706900	 89.210930	-144.781800	 61.326270	 67.639730	-63.714450	-8.599724	-1.670726	-19.109460	-0.779810	-2.248736	-5.369514	-4.966337	-11.530740	 0.242086	-5.213516	-0.193813	 3.566525	-1.378229	 35.397820	-2.634230	 0.731208	-0.242376	-3.544170	-0.622067	-7.547379	 1.131883	 93.653370	 86.008840	 172.197300	-51.813140	 78.470880	 58.148710	-4.187428	-12.791650	 22.059030	-27.177520	-3.200520	 9.556147	-9.174368	-8.517337	-38.243720	 5.070815	-0.697434	-9.399699	-2.350882	 35.473990	 5.254307
-13.657080	-37.752890	 0.864022	-38.852540	 18.502990	 3.846111	 3.551434	-34.980160	 175.626500	-2.072463	-43.498760	-0.848759	-1.057398	 82.172360	 0.209543	-2.345350	 35.070770	-0.150585	-0.743347	-35.415950	-179.471500	-2.369261	-42.320260	-0.551102	-1.473826	 83.030490	 0.942840	 2.404920	 21.361330	-0.145946	-0.167024	 14.552430	 1.282776	-1.072817	 1.371204	-1.925515	-2.250807	-4.531862	-0.237304	-120.908700	 89.163510	-146.538000	 62.759680	 68.032390	-64.182160	-8.117484	-1.746349	-18.571460	-0.482337	-2.260762	-5.367196	-4.621806	-11.211960	 1.033495	-5.213516	-0.193813	 3.566525	-1.378229	 35.397820	-2.634230	 0.750903	-0.387402	-3.465570	-0.658472	-7.769224	 1.088207	 93.690610	 86.066520	 172.208200	-47.599340	 79.278770	 53.036290	-4.476057	-12.401800	 20.688820	-27.854330	-3.208436	 9.540233	-9.004567	-8.137688	-38.111270	 5.070815	-0.697434	-9.399699	-2.350882	 35.473990	 5.254307
-13.659950	-37.757950	 0.864160	-39.010620	 18.700560	 3.888615	 3.543758	-34.949590	 175.636800	-2.096724	-43.644230	-0.876985	-1.083967	 82.377380	 0.202452	-2.341363	 35.562130	-0.162479	-0.734045	-35.249420	-179.523800	-2.288790	-42.234630	-0.491295	-1.445036	 83.230770	 0.993665	 2.404748	 21.475840	-0.143652	-0.062042	 14.440310	 1.232808	-0.991635	 1.214630	-1.871605	-2.239290	-4.712022	-0.239581	-118.517600	 89.094540	-148.896000	 64.022350	 68.460270	-64.517790	-7.747643	-1.803457	-18.065040	-0.231915	-2.271684	-5.364977	-4.303398	-10.892730	 1.772213	-5.213516	-0.193813	 3.566525	-1.378229	 35.397820	-2.634230	 0.789902	-0.497042	-3.381242	-0.682716	-8.012078	 1.110414	 93.789170	 86.163550	 172.157500	-42.909210	 79.938980	 47.489650	-4.658762	-12.033970	 19.539530	-28.403400	-3.215731	 9.524701	-8.870837	-7.806695	-38.028570	 5.070815	-0.697434	-9.399699	-2.350882	 35.473990	 5.254307
-13.662270	-37.762170	 0.864429	-39.170990	 18.875570	 3.934029	 3.552965	-34.884170	 175.665400	-2.149288	-43.710800	-0.912784	-1.112382	 82.491040	 0.189964	-2.338130	 35.947440	-0.171877	-0.729568	-35.281840	-179.585600	-2.321044	-42.185680	-0.510376	-1.465151	 83.324500	 0.998583	 2.404658	 21.537210	-0.142419	 0.011942	 14.338790	 1.160051	-0.928059	 1.096048	-1.798316	-2.215830	-4.846866	-0.239659	-116.001900	 89.013240	-151.403400	 64.941890	 68.844890	-64.684220	-7.553037	-1.827592	-17.666670	-0.093299	-2.280357	-5.363602	-4.120458	-10.681590	 2.199992	-5.213516	-0.193813	 3.566525	-1.378229	 35.397820	-2.634230	 0.833184	-0.535898	-3.287928	-0.687909	-8.231544	 1.166595	 93.921090	 86.273280	 172.065000	-38.723580	 80.359810	 42.597430	-4.686131	-11.729830	 18.757960	-28.691020	-3.221510	 9.512650	-8.783092	-7.614955	-37.955840	 5.070815	-0.697434	-9.399699	-2.350882	 35.473990	 5.254307
-13.664440	-37.766310	 0.864958	-39.343380	 19.062810	 3.958225	 3.567290	-34.823740	 175.703100	-2.242244	-43.688110	-0.969746	-1.148140	 82.520520	 0.161689	-2.335001	 36.310050	-0.180798	-0.755903	-35.308040	-179.549100	-2.402929	-42.153550	-0.581473	-1.520106	 83.351050	 0.975850	 2.404612	 21.567530	-0.141806	 0.066063	 14.221960	 1.093118	-0.874178	 0.994020	-1.707085	-2.176510	-4.961490	-0.237567	-113.264900	 88.908910	-154.147500	 65.707530	 69.197750	-64.812960	-7.463817	-1.831423	-17.321550	-0.025343	-2.288483	-5.362675	-4.015932	-10.593080	 2.446090	-5.213516	-0.193813	 3.566525	-1.378229	 35.397820	-2.634230	 0.874737	-0.561645	-3.163594	-0.665296	-8.417760	 1.245876	 94.097260	 86.394350	 171.912700	-34.910210	 80.620320	 38.135500	-4.703544	-11.482160	 18.172090	-28.878180	-3.226439	 9.502302	-8.732942	-7.556411	-37.877820	 5.070815	-0.697434	-9.399699	-2.350882	 35.473990	 5.254307
